<?xml version="1.0" encoding="UTF-8" standalone="no"?>
<!-- Created with Inkscape (http://www.inkscape.org/) -->

<svg
   width="1500"
   height="1500"
   viewBox="0 0 396.87499 396.875"
   version="1.1"
   id="svg1"
   xml:space="preserve"
   inkscape:export-filename="logo_text_large_transparent.png"
   inkscape:export-xdpi="64"
   inkscape:export-ydpi="64"
   inkscape:version="1.3 (0e150ed, 2023-07-21)"
   sodipodi:docname="logo_text.svg"
   xmlns:inkscape="http://www.inkscape.org/namespaces/inkscape"
   xmlns:sodipodi="http://sodipodi.sourceforge.net/DTD/sodipodi-0.dtd"
   xmlns="http://www.w3.org/2000/svg"
   xmlns:svg="http://www.w3.org/2000/svg"><sodipodi:namedview
     id="namedview1"
     pagecolor="#505050"
     bordercolor="#eeeeee"
     borderopacity="1"
     inkscape:showpageshadow="0"
     inkscape:pageopacity="0"
     inkscape:pagecheckerboard="0"
     inkscape:deskcolor="#505050"
     inkscape:document-units="px"
     inkscape:zoom="0.2973261"
     inkscape:cx="588.57935"
     inkscape:cy="815.60281"
     inkscape:window-width="1512"
     inkscape:window-height="866"
     inkscape:window-x="0"
     inkscape:window-y="38"
     inkscape:window-maximized="0"
     inkscape:current-layer="svg1"
     inkscape:export-bgcolor="#ffffff00" /><defs
     id="defs1" /><rect
     style="display:none;fill:#ffffff;fill-opacity:1;stroke-width:0.259073"
     id="rect3"
     width="396.875"
     height="396.875"
     x="0"
     y="0" /><g
     inkscape:label="Layer 1"
     inkscape:groupmode="layer"
     id="layer1"><g
       inkscape:label="Layer 1"
       id="layer1-5"
       transform="translate(42.6409,72.563432)"><g
         id="g3"
         transform="matrix(0.78031878,0,0,0.78031878,53.558767,-37.687008)"><path
           style="fill:#49a28b;fill-opacity:1"
           d="m 124.2704,254.38399 -5.66631,-0.8465 -5.66631,-2.0072 -5.6663,-2.00719 -6.1385,-3.3632 -6.138496,-3.36321 -0.693827,-1.02567 -0.693827,-1.02568 -0.01446,-93.25795 -0.01446,-93.257952 h 0.51909 0.51909 l 3.022351,1.561246 3.022349,1.561245 19.35988,11.296149 19.35987,11.296149 4.91469,3.260204 4.91468,3.260204 5.00135,5.403706 5.00136,5.403707 3.05562,5.736362 3.05562,5.73637 1.35096,5.55968 1.35096,5.55969 0.61482,60.56725 0.61482,60.56725 -2.66044,1.87969 -2.66044,1.87968 -6.6671,3.34525 -6.66709,3.34525 -5.13771,1.44409 -5.13771,1.44409 -5.19411,0.4469 -5.19412,0.4469 z"
           id="path1" /><path
           style="fill:#35796f;fill-opacity:1"
           d="M 178.57249,122.22511 V 8.8989911 h 0.51909 0.51909 l 3.01745,1.5603819 3.01745,1.560382 20.30917,11.766447 20.30916,11.766447 4.42125,3.232927 4.42126,3.232926 4.78885,5.239766 4.78885,5.239765 3.19982,6.768105 3.19983,6.768105 1.28364,5.194113 1.28365,5.194114 v 46.27483 46.27483 l -1.73218,6.1385 -1.73219,6.1385 -2.95215,5.66631 -2.95216,5.6663 -6.68357,6.61069 -6.68357,6.61069 -9.88074,5.80795 -9.88074,5.80795 -15.67368,9.06611 -15.67369,9.0661 h -0.61694 -0.61695 z"
           id="path3" /><path
           style="fill:#58a8a1;fill-opacity:1"
           d="m 60.275164,222.49942 -22.442324,-12.96006 -6.051491,-4.38873 -6.051491,-4.38872 -4.34893,-5.50666 -4.34893,-5.50666 -2.391395,-4.8456 -2.391395,-4.8456 -1.481457,-5.07044 -1.4814574,-5.07043 -0.4480776,-38.01147 -0.4480776,-38.01147 0.8048779,0.02485 0.8048784,0.02485 6.6106903,3.607269 6.61069,3.607281 13.361332,7.59254 13.361331,7.59254 6.489077,4.19776 6.489076,4.19777 4.429173,4.36646 4.429172,4.36647 3.376893,5.08597 3.376892,5.08597 1.93467,5.09164 1.934671,5.09163 0.842886,10.87813 0.842887,10.87812 0.02237,29.98421 0.02236,29.9842 -0.708288,-0.0459 -0.708288,-0.0459 z"
           id="path2" /></g><text
         xml:space="preserve"
         style="font-style:normal;font-variant:normal;font-weight:normal;font-stretch:normal;font-size:50.9293px;font-family:'Arial Black';-inkscape-font-specification:'Arial Black, Normal';font-variant-ligatures:normal;font-variant-caps:normal;font-variant-numeric:normal;font-variant-east-asian:normal;fill:#1e3a37;fill-opacity:1;stroke-width:4.24412"
         x="4.9110947"
         y="231.26797"
         id="text1"><tspan
           sodipodi:role="line"
           style="font-style:normal;font-variant:normal;font-weight:normal;font-stretch:normal;font-size:50.9293px;font-family:'Arial Black';-inkscape-font-specification:'Arial Black, Normal';font-variant-ligatures:normal;font-variant-caps:normal;font-variant-numeric:normal;font-variant-east-asian:normal;fill:#1e3a37;fill-opacity:1;stroke-width:4.24412"
           x="4.9110947"
           y="231.26797"
           id="tspan2">BreakWise</tspan></text><text
         xml:space="preserve"
         style="font-style:normal;font-variant:normal;font-weight:normal;font-stretch:condensed;font-size:26.8421px;font-family:'Arial Narrow';-inkscape-font-specification:'Arial Narrow, Condensed';font-variant-ligatures:normal;font-variant-caps:normal;font-variant-numeric:normal;font-variant-east-asian:normal;fill:#1e3a37;fill-opacity:1;stroke-width:17.4444"
         x="-19.716545"
         y="318.39563"
         id="text1-2"
         transform="scale(1.1470965,0.87176625)"><tspan
           sodipodi:role="line"
           style="font-style:normal;font-variant:normal;font-weight:normal;font-stretch:condensed;font-size:26.8421px;font-family:'Arial Narrow';-inkscape-font-specification:'Arial Narrow, Condensed';font-variant-ligatures:normal;font-variant-caps:normal;font-variant-numeric:normal;font-variant-east-asian:normal;fill:#1e3a37;fill-opacity:1;stroke-width:17.4444"
           x="-19.716545"
           y="318.39563"
           id="tspan2-0">Smart Breaks. Productive Days.</tspan></text></g></g></svg>
